<?xml version="1.0" encoding="UTF-8"?>
<svg id="Layer_2" data-name="Layer 2" xmlns="http://www.w3.org/2000/svg" viewBox="0 0 1004 1010">
  <path d="M301.47,546.1c1.96-1.02,5.84-3.38,8.98-7.94,3.22-4.69,4-9.27,4.23-11.48-3.41-38.5-6.82-77.01-10.23-115.51-21.2,45.75-42.39,91.5-63.59,137.25l-63.84-140.88-10.68,124c1.06,2.38,3.17,6.24,7.14,9.73,2.61,2.29,5.2,3.71,7.17,4.58h-47.66c2.58-2.03,5.81-5,8.89-9.11,3.4-4.53,5.42-8.88,6.65-12.13,2.01-22.69,4.02-45.38,6.04-68.07.44-3.49,5.54-44.66,6.01-67.77.06-2.94.08-8.45-2.59-14.64-4.05-9.4-11.41-14.08-14.12-15.63h53.74l53.61,121.04,53.1-121.04h50.76c-2.62,1.62-6.84,4.7-10.38,9.94-2.59,3.84-3.93,7.5-4.64,10.1,3.45,49.12,6.91,98.24,10.36,147.36.27,2.32,1.18,7.41,4.96,12.43,3.4,4.52,7.44,6.78,9.54,7.77h-63.45Z"/>
  <path d="M562.01,545.97c-3-1.58-6.58-3.8-10.27-6.9-4.63-3.89-7.93-7.89-10.19-11.1-21.06-56.49-42.13-112.98-63.19-169.47h-53.22c1.75.83,7.61,3.86,10.81,10.8,2.24,4.87,2.09,9.33,1.88,11.44l-53.1,147.62c-1.07,2.53-2.81,5.9-5.65,9.37-3.32,4.05-6.84,6.66-9.37,8.24h44.55c-1.57-.75-4.98-2.65-7.55-6.6-3.29-5.04-3.07-10.14-2.94-11.78,5.48-13.9,10.97-27.8,16.45-41.7h66.82l16.57,45.06c.15,1.3.38,4.8-1.61,8.51-2.3,4.3-6.06,6.04-7.19,6.51h67.2ZM425.22,471.56l27.83-74.14,28.63,74.14h-56.46Z"/>
  <path d="M665.35,358.5c-2.72,1.97-7.17,5.72-10.79,11.81-3.5,5.89-4.68,11.4-5.14,14.7v139.51c-9.93,43.06-43.97,72.55-79.83,73.04-31.02.42-52.58-20.99-57.52-26.16,31.68,15.07,66.29,10.73,85.73-9.58,12.96-13.55,15.61-33.58,16.27-41.61v-140.51c-.59-2.53-1.69-5.91-3.86-9.45-4.13-6.74-9.78-10.22-12.71-11.75h67.85Z"/>
  <path d="M724.01,525.51c.37,2.73,1.41,7.67,4.84,12.74,2.59,3.83,5.55,6.29,7.6,7.72h-61.39c2.23-1.52,5.61-4.24,8.55-8.59,3.32-4.9,4.54-9.61,5.05-12.38v-141.41c-.6-3.28-1.92-8.28-5.09-13.67-3.32-5.63-7.28-9.31-9.93-11.42h66.43c-2.93,2.19-6.94,5.72-10.53,10.97-2.8,4.1-4.49,8-5.53,11.01v145.03Z"/>
  <path d="M921.37,545.97c-2.74-1.72-6.39-4.44-9.93-8.5-3.83-4.4-6.1-8.73-7.43-11.83-19.25-55.71-38.5-111.43-57.75-167.14h-51.28c2.35,1.52,6.74,4.85,9.67,10.71,1.49,2.99,2.18,5.78,2.5,7.9-17.44,50.03-34.88,100.06-52.32,150.09-1.06,2.73-2.84,6.47-5.87,10.36-3.13,4.01-6.45,6.71-8.89,8.41h43.25c-1.51-.81-4.99-2.93-7.42-7.2-2.88-5.06-2.49-9.93-2.29-11.57,4.88-13.73,9.75-27.45,14.63-41.18h64.36l15.54,44.03c.14,1.52.24,4.87-1.51,8.54-2.15,4.51-5.74,6.67-7.03,7.38h61.77ZM792.79,471.56l27.83-74.14,28.63,74.14h-56.46Z"/>
</svg>